<?xml version="1.0" standalone="no"?>
<!DOCTYPE svg PUBLIC "-//W3C//DTD SVG 20010904//EN"
 "http://www.w3.org/TR/2001/REC-SVG-20010904/DTD/svg10.dtd">
<svg version="1.0" xmlns="http://www.w3.org/2000/svg"
 width="500.000000pt" height="500.000000pt" viewBox="0 0 500.000000 500.000000"
 preserveAspectRatio="xMidYMid meet">

<g transform="translate(0.000000,500.000000) scale(0.100000,-0.100000)"
fill="#000000" stroke="none">
<path d="M1305 3493 c-33 -8 -136 -33 -230 -55 -93 -22 -174 -43 -180 -46 -16
-10 107 -31 139 -25 20 4 27 3 22 -5 -4 -7 7 -13 28 -18 l35 -6 3 -101 3 -101
50 -19 c27 -10 72 -23 99 -28 27 -5 51 -11 53 -13 2 -2 -46 -128 -107 -280
-60 -152 -110 -279 -110 -282 0 -2 32 -4 71 -2 l72 3 20 58 21 58 114 -3 115
-3 20 -57 21 -58 73 0 73 0 -20 50 c-11 27 -63 156 -116 286 -52 130 -94 237
-92 238 2 1 32 10 68 20 35 9 70 22 77 28 9 7 13 41 13 108 l0 97 115 24 c63
13 111 26 107 30 -11 11 -469 121 -489 118 -5 -1 -35 -8 -68 -16z m35 -93
c-20 -13 -63 -13 -55 0 3 6 21 10 38 10 24 0 28 -3 17 -10z m-80 -10 c0 -5 -7
-10 -16 -10 -8 0 -12 5 -9 10 3 6 10 10 16 10 5 0 9 -4 9 -10z m-95 -10 c3 -5
-3 -10 -15 -10 -12 0 -18 5 -15 10 3 6 10 10 15 10 5 0 12 -4 15 -10z m45 6
c0 -2 -7 -6 -15 -10 -8 -3 -15 -1 -15 4 0 6 7 10 15 10 8 0 15 -2 15 -4z m-95
-16 c-3 -5 -13 -10 -21 -10 -8 0 -14 5 -14 10 0 6 9 10 21 10 11 0 17 -4 14
-10z m325 -531 c17 -45 29 -83 27 -86 -3 -2 -32 -3 -64 -1 l-60 3 31 82 c17
46 32 83 33 83 1 0 16 -37 33 -81z"/>
<path d="M1010 3301 c0 -5 5 -13 10 -16 6 -3 10 -2 10 4 0 5 -4 13 -10 16 -5
3 -10 2 -10 -4z"/>
<path d="M1000 3200 c0 -5 5 -10 10 -10 6 0 10 5 10 10 0 6 -4 10 -10 10 -5 0
-10 -4 -10 -10z"/>
<path d="M3510 3109 c-204 -31 -327 -237 -250 -416 26 -62 100 -135 168 -166
66 -31 206 -31 275 0 26 12 47 24 47 27 0 3 -12 30 -27 60 l-27 55 -30 -17
c-43 -23 -140 -21 -189 2 -22 11 -51 37 -65 59 -51 76 -21 191 59 237 54 30
133 37 183 16 22 -9 40 -15 41 -14 2 2 14 27 29 55 l26 52 -22 15 c-51 31
-145 47 -218 35z"/>
<path d="M690 2804 l0 -295 148 3 c125 3 153 6 187 24 109 56 109 236 0 275
l-35 13 26 27 c47 49 51 152 7 201 -34 38 -75 48 -208 48 l-125 0 0 -296z
m208 180 c15 -10 22 -25 22 -48 0 -40 -16 -55 -64 -63 l-36 -6 0 67 c0 66 0
66 28 66 15 0 38 -7 50 -16z m46 -255 c24 -23 25 -77 2 -94 -20 -15 -102 -29
-116 -20 -11 7 -14 128 -3 139 12 12 97 -6 117 -25z"/>
<path d="M1730 2805 l0 -295 170 0 170 0 0 60 0 60 -100 0 -100 0 0 235 0 235
-70 0 -70 0 0 -295z"/>
<path d="M2150 3045 l0 -55 125 0 c69 0 125 -2 125 -5 0 -3 -65 -109 -144
-237 l-144 -233 79 -3 79 -3 0 -149 c0 -88 4 -151 10 -155 6 -4 10 -79 10
-193 0 -184 13 -281 37 -289 25 -9 33 92 33 436 l0 351 130 0 130 0 0 60 0 59
-136 3 -135 3 137 220 c75 121 139 226 141 233 4 9 -47 12 -236 12 l-241 0 0
-55z m200 -450 c0 -18 -5 -25 -20 -25 -15 0 -20 7 -20 25 0 18 5 25 20 25 15
0 20 -7 20 -25z m-42 -217 c-2 -118 -6 -162 -15 -166 -10 -3 -13 34 -13 162 0
142 2 166 15 166 13 0 15 -22 13 -162z m37 -575 c-9 -50 -21 -61 -29 -26 -4
15 -9 36 -12 46 -4 13 1 17 21 17 26 0 27 -2 20 -37z"/>
<path d="M2863 3083 c-4 -10 -57 -143 -119 -295 l-112 -278 73 0 73 0 22 60
22 60 113 0 113 0 22 -60 22 -60 73 0 73 0 -118 293 -119 292 -65 3 c-56 2
-67 0 -73 -15z m100 -233 c14 -36 28 -73 32 -82 6 -16 0 -18 -60 -18 -37 0
-65 4 -63 8 2 4 16 42 32 85 16 43 30 76 32 75 1 -2 13 -32 27 -68z"/>
<path d="M1534 2435 c-10 -25 4 -47 28 -43 17 2 24 11 26 31 3 23 0 27 -23 27
-14 0 -28 -7 -31 -15z"/>
<path d="M3764 2435 c-10 -25 4 -47 28 -43 17 2 24 11 26 31 3 23 0 27 -23 27
-14 0 -28 -7 -31 -15z"/>
<path d="M780 2285 l0 -155 35 0 35 0 0 155 0 155 -35 0 -35 0 0 -155z"/>
<path d="M2410 2285 l0 -155 30 0 c29 0 29 1 32 63 l3 62 63 3 c58 3 62 4 62
27 0 24 -3 25 -65 25 l-65 0 0 40 0 40 70 0 c68 0 70 1 70 25 l0 25 -100 0
-100 0 0 -155z"/>
<path d="M1390 2390 c0 -20 -5 -30 -15 -30 -8 0 -15 -9 -15 -20 0 -11 7 -20
15 -20 12 0 15 -15 15 -73 0 -93 16 -119 68 -115 46 4 57 33 18 48 -24 9 -26
14 -26 71 0 52 3 62 20 66 11 3 20 14 20 24 0 12 -7 19 -20 19 -16 0 -20 7
-20 30 0 27 -3 30 -30 30 -27 0 -30 -3 -30 -30z"/>
<path d="M1660 2394 c0 -17 -6 -28 -20 -31 -11 -3 -20 -13 -20 -23 0 -10 9
-20 20 -23 18 -5 20 -14 20 -84 0 -90 8 -103 62 -103 34 0 38 3 38 25 0 18 -5
25 -20 25 -18 0 -20 7 -20 70 0 63 2 70 20 70 13 0 20 7 20 20 0 13 -7 20 -20
20 -16 0 -20 7 -20 30 0 27 -3 30 -30 30 -26 0 -30 -4 -30 -26z"/>
<path d="M2050 2390 c0 -20 -5 -30 -15 -30 -8 0 -15 -9 -15 -20 0 -11 7 -20
15 -20 12 0 15 -15 15 -73 0 -93 16 -119 68 -115 46 4 57 33 18 48 -24 9 -26
14 -26 71 0 52 3 62 20 66 11 3 20 14 20 24 0 12 -7 19 -20 19 -16 0 -20 7
-20 30 0 27 -3 30 -30 30 -27 0 -30 -3 -30 -30z"/>
<path d="M993 2355 c-18 -8 -33 -10 -33 -5 0 6 -11 10 -25 10 l-25 0 0 -115 0
-115 30 0 30 0 0 85 c0 73 3 86 19 95 41 22 51 4 51 -91 l0 -89 35 0 35 0 0
73 c0 97 -14 145 -46 157 -31 12 -32 12 -71 -5z"/>
<path d="M1190 2353 c-67 -34 -45 -112 35 -127 43 -8 61 -29 40 -46 -16 -13
-65 -6 -65 10 0 6 -13 10 -30 10 -36 0 -38 -13 -5 -45 19 -20 34 -25 75 -25
41 0 56 5 75 25 14 13 25 30 25 38 0 29 -40 65 -85 76 -35 9 -46 16 -43 29 4
22 41 27 58 7 13 -16 70 -21 70 -6 0 6 -10 21 -22 35 -31 34 -83 42 -128 19z"/>
<path d="M2747 2364 c-4 -4 -27 -6 -52 -6 l-45 2 0 -115 0 -115 30 0 29 0 3
83 3 82 33 10 c27 8 32 14 30 34 -3 25 -19 37 -31 25z"/>
<path d="M2867 2360 c-38 -12 -57 -29 -57 -51 0 -24 55 -27 64 -3 9 23 50 14
54 -12 3 -19 -3 -22 -45 -27 -75 -8 -109 -71 -63 -117 23 -23 88 -28 108 -8 9
9 12 9 12 0 0 -7 14 -12 33 -12 l32 0 -5 95 c-5 77 -9 99 -25 114 -25 23 -71
32 -108 21z m63 -149 c0 -35 -33 -52 -56 -29 -17 17 -9 45 14 51 36 10 42 7
42 -22z"/>
<path d="M3128 2354 c-16 -8 -28 -10 -28 -4 0 5 -13 10 -30 10 l-30 0 0 -115
0 -115 30 0 30 0 0 79 c0 80 12 111 44 111 27 0 36 -26 36 -107 l0 -83 30 0
30 0 0 99 c0 96 -1 100 -26 120 -31 25 -49 26 -86 5z"/>
<path d="M3340 2353 c-19 -10 -40 -29 -47 -43 -29 -58 -2 -159 46 -175 12 -3
21 -13 21 -21 0 -8 5 -14 10 -14 6 0 10 -7 10 -15 0 -8 -4 -15 -10 -15 -5 0
-10 -9 -10 -20 0 -13 7 -20 20 -20 22 0 60 33 60 52 0 6 -7 20 -17 30 -10 11
-12 18 -4 18 17 0 61 46 61 65 0 20 -56 21 -64 0 -8 -22 -53 -19 -66 4 -15 28
-12 73 6 99 19 27 40 28 56 2 15 -24 68 -28 68 -6 0 25 -43 66 -75 71 -19 4
-43 -1 -65 -12z"/>
<path d="M3577 2360 c-38 -12 -57 -29 -57 -51 0 -24 55 -27 64 -3 9 23 50 14
54 -12 3 -19 -3 -22 -45 -27 -75 -8 -109 -71 -63 -117 23 -23 88 -28 108 -8 9
9 12 9 12 0 0 -7 14 -12 33 -12 l32 0 -5 95 c-5 77 -9 99 -25 114 -25 23 -71
32 -108 21z m63 -149 c0 -35 -33 -52 -56 -29 -17 17 -9 45 14 51 36 10 42 7
42 -22z"/>
<path d="M3910 2353 c-67 -34 -45 -112 35 -127 43 -8 61 -29 40 -46 -16 -13
-65 -6 -65 10 0 6 -13 10 -30 10 -36 0 -38 -13 -5 -45 19 -20 34 -25 75 -25
41 0 56 5 75 25 14 13 25 30 25 38 0 29 -40 65 -85 76 -35 9 -46 16 -43 29 4
22 41 27 58 7 13 -16 70 -21 70 -6 0 6 -10 21 -22 35 -31 34 -83 42 -128 19z"/>
<path d="M1530 2245 l0 -115 30 0 30 0 0 115 0 115 -30 0 -30 0 0 -115z"/>
<path d="M1792 2259 c2 -86 6 -103 22 -115 24 -17 88 -18 104 -2 9 9 12 9 12
0 0 -7 13 -12 30 -12 l30 0 0 115 0 115 -30 0 -29 0 -3 -87 -3 -88 -35 0 -35
0 -3 88 -3 87 -30 0 -31 0 4 -101z"/>
<path d="M3760 2245 l0 -115 30 0 30 0 0 115 0 115 -30 0 -30 0 0 -115z"/>
<path d="M2695 2070 c-49 -10 -126 -35 -170 -54 -100 -46 -146 -69 -143 -72 4
-3 153 29 234 50 77 20 250 21 319 2 28 -8 84 -30 125 -50 61 -29 92 -38 157
-43 116 -8 187 8 343 81 74 35 146 68 160 74 24 10 24 11 -11 11 -20 1 -103
-19 -185 -44 -109 -33 -164 -45 -212 -45 -77 0 -171 23 -227 55 -94 56 -229
68 -390 35z"/>
</g>
</svg>
